<?xml version="1.0" standalone="no"?>
<!DOCTYPE svg PUBLIC "-//W3C//DTD SVG 20010904//EN"
 "http://www.w3.org/TR/2001/REC-SVG-20010904/DTD/svg10.dtd">
<svg version="1.0" xmlns="http://www.w3.org/2000/svg"
 width="1300.000000pt" height="91.000000pt" viewBox="0 0 1300.000000 91.000000"
 preserveAspectRatio="xMidYMid meet">

<g transform="translate(0.000000,91.000000) scale(0.100000,-0.100000)"
fill="#000000" stroke="none">
<path d="M0 470 l0 -440 4805 0 4805 0 0 440 0 440 -4805 0 -4805 0 0 -440z
m7590 170 c0 -5 9 -10 20 -10 11 0 20 5 20 10 0 6 5 10 10 10 6 0 10 -9 10
-20 0 -18 -7 -20 -60 -20 -53 0 -60 2 -60 20 0 16 7 20 30 20 17 0 30 -4 30
-10z m-7250 -60 c0 -5 11 -10 25 -10 29 0 75 -40 75 -65 0 -23 -52 -19 -70 5
-25 35 -90 18 -90 -24 0 -9 -4 -16 -10 -16 -5 0 -10 -16 -10 -35 0 -67 76
-112 110 -65 18 24 70 28 70 5 0 -20 -45 -65 -65 -65 -8 0 -15 -4 -15 -10 0
-5 -13 -10 -30 -10 -16 0 -30 5 -30 10 0 6 -7 10 -15 10 -20 0 -65 45 -65 65
0 8 -4 15 -10 15 -5 0 -10 23 -10 50 0 28 5 50 10 50 6 0 10 7 10 15 0 25 46
65 75 65 14 0 25 5 25 10 0 6 5 10 10 10 6 0 10 -4 10 -10z m280 0 c0 -5 11
-10 25 -10 32 0 66 -34 83 -81 14 -43 16 -99 2 -99 -5 0 -10 -7 -10 -15 0 -20
-45 -65 -65 -65 -8 0 -15 -4 -15 -10 0 -12 -44 -13 -68 -1 -9 5 -29 14 -44 22
-16 7 -28 20 -28 31 0 10 -4 18 -10 18 -6 0 -10 30 -10 70 0 40 4 70 10 70 6
0 10 9 10 20 0 13 7 20 20 20 11 0 20 5 20 10 0 6 14 10 30 10 17 0 30 5 30
10 0 6 5 10 10 10 6 0 10 -4 10 -10z m2370 0 c0 -5 14 -10 30 -10 17 0 30 -4
30 -10 0 -5 6 -10 13 -10 20 0 47 -65 47 -111 0 -59 -40 -129 -74 -129 -8 0
-18 -4 -21 -10 -8 -13 -62 -13 -70 0 -3 6 -13 10 -21 10 -39 0 -78 77 -71 140
7 56 26 100 44 100 7 0 13 5 13 10 0 6 14 10 30 10 17 0 30 5 30 10 0 6 5 10
10 10 6 0 10 -4 10 -10z m1450 0 c0 -5 14 -10 30 -10 17 0 30 -4 30 -10 0 -5
6 -10 14 -10 22 0 41 -60 39 -127 -1 -52 -5 -66 -27 -87 -14 -15 -32 -26 -40
-26 -8 0 -18 -4 -21 -10 -8 -13 -62 -13 -70 0 -3 6 -13 10 -21 10 -32 0 -65
49 -71 106 -6 59 18 134 44 134 7 0 13 5 13 10 0 6 14 10 30 10 17 0 30 5 30
10 0 6 5 10 10 10 6 0 10 -4 10 -10z m540 0 c0 -5 14 -10 30 -10 17 0 30 -4
30 -10 0 -5 6 -10 14 -10 22 0 41 -60 39 -127 -1 -52 -5 -66 -27 -87 -14 -15
-32 -26 -40 -26 -8 0 -18 -4 -21 -10 -8 -13 -62 -13 -70 0 -3 6 -13 10 -22 10
-41 0 -85 104 -68 163 15 51 28 77 41 77 8 0 14 5 14 10 0 6 14 10 30 10 17 0
30 5 30 10 0 6 5 10 10 10 6 0 10 -4 10 -10z m1370 0 c0 -5 9 -10 20 -10 11 0
20 -4 20 -10 0 -5 9 -10 20 -10 13 0 20 -7 20 -20 0 -11 5 -20 10 -20 6 0 10
-32 10 -75 0 -66 -3 -79 -22 -98 -37 -36 -138 -63 -138 -37 0 6 -7 10 -15 10
-25 0 -65 46 -65 75 0 14 -4 25 -10 25 -5 0 -10 9 -10 20 0 11 5 20 10 20 6 0
10 16 10 35 0 43 37 85 75 85 14 0 25 5 25 10 0 6 9 10 20 10 11 0 20 -4 20
-10z m980 0 c0 -5 11 -10 25 -10 29 0 75 -40 75 -65 0 -23 -52 -19 -70 5 -17
24 -55 26 -76 5 -14 -13 -14 -17 0 -30 8 -8 28 -15 45 -15 17 0 31 -4 31 -10
0 -5 9 -10 21 -10 32 0 49 -25 49 -70 0 -43 -17 -70 -44 -70 -9 0 -16 -4 -16
-10 0 -5 -18 -10 -40 -10 -22 0 -40 5 -40 10 0 6 -7 10 -16 10 -25 0 -71 59
-57 74 13 13 49 5 63 -14 17 -23 74 -27 94 -7 22 21 -4 47 -48 47 -20 0 -36 5
-36 10 0 6 -7 10 -16 10 -27 0 -47 30 -47 70 0 45 21 70 57 70 14 0 26 5 26
10 0 6 5 10 10 10 6 0 10 -4 10 -10z m576 -10 c19 0 34 -4 34 -10 0 -5 7 -10
15 -10 8 0 15 -9 15 -20 0 -11 5 -20 10 -20 14 0 13 -126 -2 -153 -17 -32 -29
-41 -76 -57 -34 -11 -48 -11 -63 -2 -10 7 -23 12 -29 12 -18 0 -54 43 -67 81
-16 43 -17 79 -3 79 6 0 10 11 10 25 0 36 42 75 80 75 17 0 30 5 31 13 0 10 2
10 6 0 2 -7 20 -13 39 -13z m1355 0 c16 0 29 -4 29 -10 0 -5 7 -10 15 -10 8 0
15 -4 15 -9 0 -5 8 -17 17 -27 33 -33 14 -184 -23 -184 -8 0 -14 -4 -14 -10 0
-5 -9 -10 -19 -10 -11 0 -23 -4 -26 -10 -8 -13 -52 -13 -60 0 -3 6 -13 10 -21
10 -24 0 -58 41 -73 88 -12 36 -12 48 0 85 18 55 50 87 89 87 17 0 30 5 31 13
0 10 2 10 6 0 2 -7 18 -13 34 -13z m-8401 -20 c0 -11 5 -20 10 -20 6 0 10 -14
10 -30 0 -36 22 -110 32 -110 5 0 8 18 8 40 0 22 5 40 10 40 6 0 10 16 10 36
0 45 19 64 64 64 l36 0 0 -130 0 -130 -30 0 -30 0 0 83 c0 56 -3 77 -10 67 -5
-8 -10 -32 -10 -52 0 -21 -4 -38 -10 -38 -5 0 -10 -13 -10 -30 0 -26 -4 -30
-26 -30 -36 0 -53 26 -54 78 0 23 -4 42 -9 42 -5 0 -12 10 -14 23 -2 12 -5
-15 -6 -60 -1 -81 -1 -83 -26 -83 l-25 0 0 130 0 130 40 0 c33 0 40 -3 40 -20z
m415 -5 c25 -24 36 -95 16 -95 -5 0 -12 -8 -15 -18 -6 -17 -73 -42 -116 -42
-17 0 -20 -7 -20 -40 0 -38 -2 -40 -30 -40 l-30 0 0 130 0 130 85 0 c78 0 88
-2 110 -25z m211 -92 c21 -65 42 -119 46 -121 20 -9 4 -22 -26 -22 -26 0 -36
5 -41 20 -5 16 -15 20 -53 20 -36 0 -50 -5 -60 -20 -13 -21 -72 -29 -72 -10 0
6 5 10 10 10 6 0 10 10 10 23 0 13 4 27 8 33 5 5 19 43 33 84 29 90 35 99 75
100 31 0 32 -1 70 -117z m164 87 c7 -16 16 -30 21 -30 5 0 9 -9 9 -20 0 -11 5
-20 10 -20 6 0 10 -7 10 -16 0 -15 23 -44 34 -44 3 0 6 36 6 80 0 79 0 80 25
80 l25 0 0 -130 0 -130 -34 0 c-28 0 -36 5 -46 30 -7 17 -16 30 -21 30 -5 0
-9 9 -9 20 0 11 -4 20 -10 20 -5 0 -10 7 -10 16 0 15 -23 44 -34 44 -3 0 -6
-36 -6 -80 0 -79 0 -80 -25 -80 l-25 0 0 130 0 130 34 0 c28 0 36 -5 46 -30z
m250 -20 l0 -50 50 0 50 0 0 50 c0 49 1 50 30 50 l30 0 0 -130 0 -130 -30 0
-30 0 0 60 0 60 -50 0 -50 0 0 -60 0 -60 -30 0 -30 0 0 130 0 130 30 0 c29 0
30 -1 30 -50z m270 -80 l0 -130 -30 0 -30 0 0 130 0 130 30 0 30 0 0 -130z
m198 103 c6 -16 17 -48 26 -73 8 -25 24 -69 35 -98 12 -29 21 -55 21 -57 0 -3
-16 -5 -35 -5 -28 0 -35 4 -35 20 0 18 -7 20 -54 20 -46 0 -56 -3 -61 -20 -4
-14 -15 -20 -37 -20 -20 0 -28 4 -25 13 3 6 22 65 44 129 l38 118 36 0 c31 0
38 -4 47 -27z m392 17 c0 -5 6 -10 13 -10 20 0 47 -65 47 -111 0 -42 -23 -96
-49 -116 -10 -7 -50 -12 -98 -13 l-83 0 0 130 0 130 85 0 c50 0 85 -4 85 -10z
m590 -27 c6 -21 13 -57 16 -80 11 -71 28 -59 48 33 l19 84 43 0 44 0 0 -130 0
-130 -30 0 -30 0 -1 93 c0 50 -2 88 -4 82 -1 -5 -11 -47 -21 -92 l-17 -83 -33
0 c-31 0 -32 2 -43 58 -26 129 -29 132 -30 35 l-1 -93 -30 0 -30 0 0 130 0
130 45 0 c42 0 44 -1 55 -37z m420 17 c0 -18 -7 -20 -70 -20 l-70 0 0 -30 0
-30 65 0 c52 0 65 -3 65 -16 0 -29 -27 -44 -79 -44 -50 0 -51 -1 -51 -30 l0
-30 70 0 c63 0 70 -2 70 -20 0 -19 -7 -20 -100 -20 l-100 0 0 130 0 130 100 0
c93 0 100 -1 100 -20z m250 0 c0 -17 -7 -20 -39 -20 -49 0 -51 -6 -51 -126 0
-94 0 -94 -25 -94 -25 0 -25 0 -25 94 0 120 -2 126 -51 126 -32 0 -39 3 -39
20 0 19 7 20 115 20 108 0 115 -1 115 -20z m225 -5 c28 -27 32 -66 11 -88 -13
-12 -13 -20 -1 -53 8 -21 14 -51 15 -66 0 -24 -4 -28 -30 -28 -27 0 -30 3 -30
33 -1 46 -20 67 -64 67 l-36 0 0 -50 c0 -49 -1 -50 -30 -50 l-30 0 0 130 0
130 85 0 c78 0 88 -2 110 -25z m540 0 c25 -24 36 -95 16 -95 -5 0 -12 -8 -15
-18 -4 -11 -25 -23 -53 -31 -27 -7 -54 -14 -60 -17 -7 -2 -13 -19 -13 -39 0
-31 -3 -35 -25 -35 l-25 0 0 130 0 130 75 0 c67 0 79 -3 100 -25z m415 -69 c0
-52 3 -101 6 -110 5 -12 21 -16 65 -16 52 0 59 -2 59 -20 0 -19 -7 -20 -90
-20 l-90 0 0 130 0 130 25 0 c25 0 25 0 25 -94z m230 -36 l0 -130 -30 0 -30 0
0 130 0 130 30 0 30 0 0 -130z m240 110 c0 -17 -7 -20 -40 -20 l-40 0 0 -110
0 -110 -30 0 -30 0 0 110 0 110 -40 0 c-33 0 -40 3 -40 20 0 19 7 20 110 20
103 0 110 -1 110 -20z m146 6 c8 -8 14 -26 14 -40 0 -14 5 -26 10 -26 6 0 10
-13 10 -30 0 -16 5 -30 10 -30 6 0 10 -9 10 -20 0 -11 5 -30 12 -43 31 -60 31
-57 -12 -57 -33 0 -40 3 -40 20 0 17 -7 20 -48 20 -36 0 -51 -5 -62 -20 -15
-21 -70 -28 -70 -10 0 6 5 10 10 10 6 0 10 14 10 30 0 17 5 30 10 30 6 0 10
14 10 30 0 17 4 30 8 30 4 0 16 27 25 60 17 56 20 60 48 60 17 0 37 -6 45 -14z
m194 -6 c0 -11 4 -20 9 -20 5 0 14 -13 21 -30 7 -16 16 -30 21 -30 5 0 9 -7 9
-16 0 -15 23 -44 34 -44 3 0 6 36 6 80 0 73 2 80 20 80 19 0 20 -7 20 -130 l0
-130 -29 0 c-23 0 -32 7 -43 30 -7 17 -16 30 -20 30 -5 0 -8 9 -8 20 0 11 -4
20 -10 20 -5 0 -10 7 -10 16 0 15 -23 44 -34 44 -3 0 -6 -36 -6 -80 l0 -80
-30 0 -30 0 0 130 0 130 40 0 c33 0 40 -3 40 -20z m760 10 c0 -5 9 -10 20 -10
13 0 20 -7 20 -20 0 -11 5 -20 10 -20 6 0 10 -30 10 -70 0 -40 -4 -70 -10 -70
-5 0 -10 -7 -10 -16 0 -34 -26 -44 -114 -44 l-86 0 0 130 0 130 80 0 c47 0 80
-4 80 -10z m300 -10 c0 -18 -7 -20 -70 -20 l-70 0 0 -30 0 -30 70 0 c57 0 70
-3 70 -16 0 -30 -27 -44 -84 -44 -56 0 -56 0 -56 -30 l0 -30 80 0 c73 0 80 -2
80 -20 0 -19 -7 -20 -110 -20 l-110 0 0 130 0 130 100 0 c93 0 100 -1 100 -20z
m560 -10 c0 -16 4 -30 8 -30 5 0 15 -23 22 -51 8 -27 18 -52 22 -55 4 -3 8
-16 8 -30 0 -13 5 -24 10 -24 6 0 10 -9 10 -20 0 -28 -50 -28 -68 0 -9 16 -23
20 -62 20 -43 0 -50 -3 -50 -20 0 -16 -7 -20 -30 -20 -27 0 -30 3 -30 30 0 17
5 30 10 30 6 0 10 14 10 30 0 17 4 30 8 30 5 0 15 23 22 50 7 28 17 50 22 50
4 0 8 9 8 20 0 17 7 20 40 20 38 0 40 -2 40 -30z m695 5 c27 -26 32 -68 14
-107 -10 -23 -67 -48 -109 -48 -17 0 -20 -7 -20 -40 0 -38 -2 -40 -30 -40
l-30 0 0 130 0 130 75 0 c67 0 79 -3 100 -25z m185 -4 c0 -16 4 -31 8 -33 4
-1 20 -39 34 -83 14 -44 29 -88 33 -97 11 -27 -46 -24 -65 2 -11 15 -26 20
-62 20 -41 0 -48 -3 -48 -20 0 -16 -7 -20 -35 -20 -34 0 -35 1 -29 28 4 15 11
29 16 30 4 2 8 17 8 33 0 16 5 29 10 29 6 0 10 14 10 30 0 17 5 30 10 30 6 0
10 7 10 15 0 8 5 26 12 40 9 20 18 25 50 25 35 0 38 -2 38 -29z m160 -65 c0
-115 4 -126 42 -126 50 0 58 18 58 124 l0 96 30 0 30 0 0 -96 c0 -53 -5 -105
-12 -117 -16 -31 -34 -47 -52 -47 -9 0 -16 -4 -16 -10 0 -13 -57 -13 -65 0 -3
6 -15 10 -25 10 -38 0 -50 37 -50 152 l0 108 30 0 30 0 0 -94z m270 -16 l0
-110 65 0 c58 0 65 -2 65 -20 0 -19 -7 -20 -95 -20 l-95 0 0 130 0 130 30 0
30 0 0 -110z"/>
<path d="M570 520 c0 -5 -7 -10 -15 -10 -12 0 -15 -14 -15 -66 0 -75 12 -94
60 -94 80 0 107 104 44 167 -15 15 -74 17 -74 3z"/>
<path d="M2944 516 c-59 -67 -38 -166 36 -166 51 0 73 32 67 97 -3 29 -12 60
-21 68 -18 18 -67 19 -82 1z"/>
<path d="M4380 513 c-21 -24 -20 -124 2 -146 21 -22 75 -22 96 0 23 23 23 123
0 146 -21 22 -79 21 -98 0z"/>
<path d="M4920 513 c-9 -11 -15 -38 -15 -73 0 -66 17 -90 65 -90 48 0 65 24
65 90 0 40 -5 62 -17 73 -21 22 -79 21 -98 0z"/>
<path d="M6283 515 c-7 -8 -13 -21 -13 -30 0 -8 -4 -15 -10 -15 -5 0 -10 -13
-10 -30 0 -16 5 -30 10 -30 6 0 10 -7 10 -16 0 -25 26 -44 60 -44 38 0 60 20
60 53 0 14 6 28 13 31 10 5 10 7 0 12 -7 3 -13 17 -13 31 0 13 -6 31 -14 39
-19 18 -77 18 -93 -1z"/>
<path d="M7823 515 c-7 -8 -13 -21 -13 -30 0 -8 -4 -15 -10 -15 -14 0 -13 -46
2 -73 19 -36 35 -47 68 -47 47 0 62 21 62 90 0 40 -5 64 -15 75 -19 19 -78 19
-94 0z"/>
<path d="M9184 516 c-39 -43 -43 -86 -14 -133 16 -27 26 -33 56 -33 50 0 64
18 64 83 0 38 -5 60 -19 75 -20 24 -69 29 -87 8z"/>
<path d="M1146 514 c-3 -9 -6 -27 -6 -40 0 -22 4 -24 45 -24 39 0 45 3 51 25
4 16 1 30 -9 40 -21 20 -73 20 -81 -1z"/>
<path d="M1400 470 c0 -11 -4 -20 -10 -20 -5 0 -10 -9 -10 -20 0 -16 7 -20 31
-20 26 0 30 3 24 18 -4 9 -10 27 -12 40 -6 27 -23 29 -23 2z"/>
<path d="M2317 467 c-25 -31 -22 -57 7 -57 23 0 24 3 19 38 -3 20 -6 38 -7 39
-1 1 -9 -8 -19 -20z"/>
<path d="M2650 440 l0 -90 36 0 c47 0 73 31 74 87 0 51 -8 73 -26 73 -8 0 -14
5 -14 10 0 6 -16 10 -35 10 l-35 0 0 -90z"/>
<path d="M4110 490 c0 -39 1 -40 36 -40 35 0 64 18 64 40 0 22 -29 40 -64 40
-35 0 -36 -1 -36 -40z"/>
<path d="M4666 514 c-3 -9 -6 -27 -6 -40 0 -21 4 -24 40 -24 34 0 41 4 46 25
7 30 -15 55 -49 55 -14 0 -28 -7 -31 -16z"/>
<path d="M5770 470 c0 -11 -4 -20 -10 -20 -5 0 -10 -9 -10 -20 0 -16 7 -20 31
-20 26 0 30 3 24 18 -4 9 -10 27 -12 40 -6 27 -23 29 -23 2z"/>
<path d="M6670 440 l0 -90 36 0 c51 0 64 18 64 90 0 72 -13 90 -64 90 l-36 0
0 -90z"/>
<path d="M7570 460 c0 -16 -4 -30 -10 -30 -5 0 -10 -4 -10 -10 0 -5 14 -10 30
-10 26 0 30 4 30 26 0 23 -20 54 -34 54 -3 0 -6 -13 -6 -30z"/>
<path d="M8210 490 l0 -40 40 0 c36 0 40 2 40 26 0 33 -21 54 -54 54 -24 0
-26 -4 -26 -40z"/>
<path d="M8447 468 c-2 -13 -8 -31 -12 -40 -6 -15 -2 -18 24 -18 34 0 39 12
19 55 -14 31 -24 32 -31 3z"/>
<path d="M9682 478 l3 -433 410 -3 c226 -1 420 0 433 3 l22 5 0 430 0 430
-435 0 -435 0 2 -432z m583 207 c80 -80 145 -147 145 -149 0 -3 -11 -16 -25
-30 -30 -30 -31 -43 -7 -65 11 -9 21 -22 24 -30 4 -15 -273 -301 -292 -301
-11 0 -290 276 -290 286 0 9 23 48 36 61 18 18 27 16 44 -8 19 -27 147 -159
155 -159 3 0 5 81 5 180 0 153 -2 180 -15 180 -8 0 -15 -4 -15 -10 0 -16 -138
-150 -155 -150 -9 0 -27 11 -41 25 l-25 25 143 144 c79 79 149 145 156 145 7
1 77 -64 157 -144z"/>
<path d="M10160 470 c0 -99 3 -180 6 -180 10 0 174 170 174 180 0 6 -24 35
-52 64 -29 30 -64 68 -78 85 -47 57 -50 47 -50 -149z"/>
<path d="M10620 470 l0 -440 1190 0 1190 0 0 440 0 440 -1190 0 -1190 0 0
-440z m2000 310 c0 -5 9 -10 20 -10 11 0 20 -4 20 -10 0 -5 9 -10 20 -10 16 0
20 -7 20 -30 0 -23 -4 -30 -20 -30 -11 0 -20 5 -20 10 0 6 -9 10 -19 10 -11 0
-22 6 -25 13 -5 10 -7 10 -12 0 -3 -7 -14 -13 -25 -13 -10 0 -19 -4 -19 -10 0
-5 -13 -10 -30 -10 -20 0 -30 5 -30 15 0 20 45 65 65 65 8 0 15 5 15 10 0 6 9
10 20 10 11 0 20 -4 20 -10z m40 -140 c0 -5 11 -10 25 -10 29 0 75 -40 75 -65
0 -8 5 -15 10 -15 6 0 10 -9 10 -20 0 -11 5 -20 10 -20 6 0 10 -33 10 -80 0
-47 -4 -80 -10 -80 -5 0 -10 -7 -10 -15 0 -9 -20 -36 -45 -60 l-44 -45 -86 0
c-50 0 -85 4 -85 10 0 6 -7 10 -15 10 -20 0 -65 45 -65 65 0 8 -4 15 -10 15
-6 0 -10 40 -10 100 0 60 4 100 10 100 6 0 10 7 10 15 0 23 66 85 90 85 11 0
20 5 20 10 0 6 25 10 55 10 30 0 55 -4 55 -10z m-1700 -40 c0 -16 4 -30 9 -30
5 0 12 -20 15 -45 3 -25 9 -65 12 -90 3 -25 10 -45 15 -45 5 0 9 -9 9 -20 0
-38 18 -20 23 23 3 23 10 62 17 87 6 25 14 63 17 84 8 55 22 66 87 66 l56 0 0
-200 0 -200 -40 0 -40 0 0 140 c0 132 -11 181 -23 108 -4 -18 -11 -55 -16 -83
-6 -27 -13 -66 -16 -85 -11 -63 -25 -80 -65 -80 -34 0 -36 2 -47 43 -7 23 -17
67 -23 97 -6 30 -13 65 -16 78 -2 12 -9 22 -14 22 -6 0 -10 -43 -10 -104 0
-57 -3 -111 -6 -120 -8 -22 -70 -22 -78 0 -3 9 -6 99 -6 200 l0 184 70 0 70 0
0 -30z m640 0 l0 -30 -110 0 -110 0 0 -40 0 -40 94 0 c101 0 106 -3 106 -56 0
-24 -1 -24 -100 -24 l-100 0 0 -50 0 -50 110 0 110 0 0 -40 0 -40 -150 0 -150
0 0 200 0 200 150 0 150 0 0 -30z m380 0 l0 -30 -60 0 -60 0 0 -170 0 -170
-40 0 -40 0 0 170 0 170 -60 0 -60 0 0 30 0 30 160 0 160 0 0 -30z m355 5 c33
-32 36 -123 5 -145 -19 -14 -28 -50 -12 -50 16 0 32 -58 32 -117 l0 -63 -39 0
-39 0 -11 63 c-6 35 -11 71 -11 80 0 14 -11 17 -70 17 l-70 0 0 -80 0 -80 -40
0 -40 0 0 200 0 200 135 0 c131 0 137 -1 160 -25z"/>
<path d="M12550 560 c0 -5 -7 -10 -15 -10 -8 0 -15 -9 -15 -20 0 -11 -4 -20
-10 -20 -14 0 -12 -126 3 -152 26 -46 55 -68 92 -68 19 0 35 5 35 10 0 6 7 10
16 10 23 0 44 25 44 54 0 14 5 26 10 26 6 0 10 18 10 40 0 22 -4 40 -10 40 -5
0 -10 11 -10 25 0 14 -11 37 -25 50 -19 20 -34 25 -75 25 -27 0 -50 -4 -50
-10z"/>
<path d="M12120 520 l0 -50 80 0 80 0 0 36 c0 52 -18 64 -94 64 l-66 0 0 -50z"/>
</g>
</svg>
